<?xml version="1.0" encoding="UTF-8"?>
<svg id="Layer_1" data-name="Layer 1" xmlns="http://www.w3.org/2000/svg" viewBox="0 0 399.2 79.77">
  <defs>
    <style>
      .cls-1 {
        fill: #03045e;
      }

      .cls-2 {
        fill: #90e0ef;
      }
    </style>
  </defs>
  <g>
    <path class="cls-1" d="M104.86,78.36h-7.07c-2.32,0-4.21-1.88-4.21-4.21V5.18c0-2.32,1.88-4.21,4.21-4.21h7.07c2.32,0,4.21,1.88,4.21,4.21v68.97c0,2.32-1.88,4.21-4.21,4.21Z"/>
    <path class="cls-1" d="M134.7,78.36h-7.07c-2.32,0-4.21-1.88-4.21-4.21V5.18c0-2.32,1.88-4.21,4.21-4.21h26.77c2.84,0,5.58.37,8.2,1.11s5.08,1.78,7.37,3.13c2.29,1.35,4.37,2.97,6.26,4.86,1.89,1.89,3.51,3.98,4.86,6.29,1.35,2.3,2.39,4.77,3.13,7.39s1.11,5.36,1.11,8.2c0,2.66-.33,5.25-1,7.77s-1.62,4.91-2.86,7.18c-1.24,2.27-2.76,4.36-4.56,6.26-1.06,1.12-2.2,2.16-3.41,3.11-1.51,1.18-2.06,3.2-1.32,4.97l4.78,11.27c1.18,2.78-.86,5.85-3.87,5.85h-7.34c-1.68,0-3.2-1-3.86-2.54l-4.54-10.5c-.67-1.55-2.2-2.55-3.89-2.54l-10.36.06c-2.31.01-4.18,1.89-4.18,4.21v7.1c0,2.32-1.88,4.21-4.21,4.21ZM138.91,20.67v22.56c0,2.32,1.88,4.21,4.21,4.21h11.28c2.12,0,4.12-.4,5.99-1.21,1.87-.81,3.51-1.92,4.91-3.32,1.4-1.4,2.51-3.05,3.32-4.94.81-1.89,1.21-3.9,1.21-6.02s-.4-4.13-1.21-6.02-1.92-3.53-3.32-4.94c-1.4-1.4-3.04-2.51-4.91-3.32-1.87-.81-3.87-1.21-5.99-1.21h-11.28c-2.32,0-4.21,1.88-4.21,4.21Z"/>
    <path class="cls-1" d="M190.94,24.18c0-3.2.61-6.21,1.83-9.01,1.22-2.81,2.89-5.26,4.99-7.37,2.1-2.1,4.56-3.77,7.37-4.99s5.81-1.83,9.01-1.83h31.3c2.32,0,4.21,1.88,4.21,4.21v7.07c0,2.32-1.88,4.21-4.21,4.21h-31.3c-1.08,0-2.09.2-3.02.59-.94.39-1.75.94-2.46,1.65-.7.7-1.25,1.52-1.65,2.46-.4.93-.59,1.94-.59,3.02s.2,2.09.59,3.05c.4.96.94,1.78,1.65,2.48.7.7,1.52,1.25,2.46,1.65.94.39,1.94.59,3.02.59h15.49c3.2,0,6.21.6,9.04,1.81,2.83,1.2,5.29,2.86,7.39,4.97,2.1,2.1,3.76,4.57,4.97,7.39s1.81,5.84,1.81,9.04-.6,6.21-1.81,9.01c-1.21,2.81-2.86,5.26-4.97,7.37-2.1,2.1-4.57,3.77-7.39,4.99-2.83,1.23-5.84,1.83-9.04,1.83h-30.17c-2.32,0-4.21-1.88-4.21-4.21v-7.07c0-2.32,1.88-4.21,4.21-4.21h30.17c1.08,0,2.09-.2,3.02-.59.94-.39,1.75-.94,2.46-1.65s1.25-1.52,1.65-2.46.59-1.94.59-3.02-.2-2.09-.59-3.02-.94-1.75-1.65-2.46c-.7-.7-1.52-1.25-2.46-1.65-.94-.39-1.94-.59-3.02-.59h-15.49c-3.2,0-6.21-.61-9.01-1.83s-5.26-2.89-7.37-4.99-3.77-4.57-4.99-7.39c-1.22-2.82-1.83-5.84-1.83-9.04Z"/>
    <path class="cls-1" d="M290.19,78.36h-7.02c-2.32,0-4.21-1.88-4.21-4.21V20.67c0-2.32-1.88-4.21-4.21-4.21h-14.84c-2.32,0-4.21-1.88-4.21-4.21v-7.07c0-2.32,1.88-4.21,4.21-4.21h53.48c2.32,0,4.21,1.88,4.21,4.21v7.07c0,2.32-1.88,4.21-4.21,4.21h-14.79c-2.32,0-4.21,1.88-4.21,4.21v53.48c0,2.32-1.88,4.21-4.21,4.21Z"/>
    <g>
      <path class="cls-1" d="M336.49,30.41c1.3-3.01,3.06-5.61,5.29-7.83,2.23-2.21,4.84-3.97,7.83-5.26s6.19-1.94,9.61-1.94,6.58.65,9.58,1.94,5.61,3.05,7.83,5.26c2.21,2.21,3.97,4.82,5.26,7.83,1.3,3.01,1.94,6.2,1.94,9.58h15.38c0-3.67-.48-7.22-1.43-10.63-.95-3.42-2.29-6.6-4.02-9.55-1.73-2.95-3.81-5.65-6.26-8.1-2.45-2.44-5.15-4.53-8.1-6.26-2.95-1.73-6.13-3.07-9.55-4.02-3.42-.96-6.96-1.43-10.63-1.43s-7.2.47-10.6,1.43c-3.4.96-6.58,2.29-9.55,4.02-2.97,1.73-5.67,3.82-8.12,6.26-2.45,2.44-4.54,5.14-6.29,8.1-1.75,2.95-3.1,6.14-4.05,9.55-.95,3.42-1.43,6.96-1.43,10.63h15.38c0-3.38.65-6.57,1.94-9.58Z"/>
      <path class="cls-2" d="M383.82,39.72c0,3.38-.65,6.56-1.94,9.53-1.3,2.97-3.05,5.57-5.26,7.8-2.21,2.23-4.82,3.99-7.83,5.29s-6.2,1.94-9.58,1.94-6.62-.65-9.61-1.94c-2.99-1.3-5.59-3.06-7.83-5.29-2.23-2.23-3.99-4.83-5.29-7.8s-1.94-6.14-1.94-9.53h-15.38c0,3.67.48,7.2,1.43,10.6.95,3.4,2.3,6.58,4.05,9.55,1.75,2.97,3.84,5.68,6.29,8.12,2.45,2.44,5.15,4.54,8.12,6.29s6.15,3.09,9.55,4.05c3.4.96,6.93,1.43,10.6,1.43s7.21-.47,10.63-1.43c3.42-.96,6.6-2.3,9.55-4.05,2.95-1.74,5.65-3.84,8.1-6.29,2.45-2.44,4.53-5.15,6.26-8.12,1.73-2.97,3.07-6.15,4.02-9.55.95-3.4,1.43-6.93,1.43-10.6h-15.38Z"/>
    </g>
  </g>
  <path class="cls-1" d="M72.1,28.76c-2.22,1.09-3.18,2.79-4.93,4.15-8.87,6.93-22.49,10.15-33.23,7.92l-4.45-1.13c-2.19-.59-6.61-2.88-8.89-4.29-3.21-1.98-7.02-6.22-10.1-7.34-3.31-1.21-8.08,1.24-9.57,4.36-2.25,4.69-.07,8.19,3.31,11.38l2.71,1.96.02,16.31c0,.07-.04.14-.04.22v12.67c0,1.87,2.49,3.38,5.57,3.38h5.72c3.07,0,5.57-1.51,5.57-3.38l.04-8.18v-2.41s0-.02,0-.03v-.88l-.04-1.18s0-.03,0-.04c-.08-2.53-.26-5.09-.35-7.46,3.04,1.12,6.12,1.73,9.33,2.26,5.87.97,11.06,1.1,16.99.46,3.5-.38,7.41-1.83,10.82-2.72-.15,2.47-.32,4.95-.34,7.43,0,.03-.01.05-.01.08v12.67c0,1.87,2.49,3.38,5.57,3.38h5.72c3.07,0,5.57-1.51,5.57-3.38v-12.67s0-.02,0-.03l.04-16.22c1.89-2.16,4.85-3.81,6.09-6.47,3.34-7.15-4.44-14.1-11.1-10.83Z"/>
  <path class="cls-2" d="M71.5,24.73h-5.72c-3.07,0-5.57-1.85-5.57-4.13V5.11c0-2.28,2.49-4.13,5.57-4.13h5.72c3.07,0,5.57,1.85,5.57,4.13v15.49c0,2.28-2.49,4.13-5.57,4.13Z"/>
  <path class="cls-2" d="M18.22,24.73h-5.72c-3.07,0-5.57-1.85-5.57-4.13V5.11c0-2.28,2.49-4.13,5.57-4.13h5.72c3.07,0,5.57,1.71,5.57,4.13l.04,1.44v4.06l-.04,9.99c0,2.28-2.49,4.13-5.57,4.13Z"/>
</svg>